<?xml version="1.0" encoding="UTF-8" standalone="no"?>
<svg
   xmlns:dc="http://purl.org/dc/elements/1.1/"
   xmlns:cc="http://creativecommons.org/ns#"
   xmlns:rdf="http://www.w3.org/1999/02/22-rdf-syntax-ns#"
   xmlns:svg="http://www.w3.org/2000/svg"
   xmlns="http://www.w3.org/2000/svg"
   width="184.0267mm"
   height="164.91548mm"
   viewBox="0 0 184.02671 164.91548"
   version="1.1"
   id="svg10208">
  <title
     id="title15029">Vampire Jack-o'-lantern</title>
  <defs
     id="defs10202" />
  <metadata
     id="metadata10205">
    <rdf:RDF>
      <cc:Work
         rdf:about="">
        <dc:format>image/svg+xml</dc:format>
        <dc:type
           rdf:resource="http://purl.org/dc/dcmitype/StillImage" />
        <dc:title>Vampire Jack-o'-lantern</dc:title>
        <dc:date>2017-09-16</dc:date>
        <dc:creator>
          <cc:Agent>
            <dc:title>Urs Roesch</dc:title>
          </cc:Agent>
        </dc:creator>
        <cc:license
           rdf:resource="http://creativecommons.org/publicdomain/zero/1.0/" />
        <dc:publisher>
          <cc:Agent>
            <dc:title>Open Clipart</dc:title>
          </cc:Agent>
        </dc:publisher>
        <dc:subject>
          <rdf:Bag>
            <rdf:li>jack-o-lantern</rdf:li>
            <rdf:li>pumpkin</rdf:li>
            <rdf:li>halloween</rdf:li>
            <rdf:li>october</rdf:li>
            <rdf:li>orange</rdf:li>
            <rdf:li>vampire</rdf:li>
          </rdf:Bag>
        </dc:subject>
        <dc:description>Vampire Jack-o'-lantern</dc:description>
      </cc:Work>
      <cc:License
         rdf:about="http://creativecommons.org/publicdomain/zero/1.0/">
        <cc:permits
           rdf:resource="http://creativecommons.org/ns#Reproduction" />
        <cc:permits
           rdf:resource="http://creativecommons.org/ns#Distribution" />
        <cc:permits
           rdf:resource="http://creativecommons.org/ns#DerivativeWorks" />
      </cc:License>
    </rdf:RDF>
  </metadata>
  <g
     style="fill:#ff6a07;fill-opacity:1;stroke:#ff6600;stroke-opacity:0"
     transform="matrix(0.29032988,0,0,0.29032988,133.24089,55.482239)"
     id="g24555">
    <g
       style="fill:#ff6a07;fill-opacity:1;stroke:#ff6600"
       id="g24553">
      <path
         id="path24551"
         transform="matrix(0.26458333,0,0,0.26458333,3425.6361,1922.8807)"
         d="m -13369.008,-7989.3594 v 0 0.029 c -3.064,0.038 -6.129,0.1294 -9.189,0.3183 -0.489,0.038 -0.977,0.068 -1.465,0.1055 h -0.195 c -2.866,0.2079 -5.727,0.4933 -8.579,0.8535 -0.306,0.038 -0.611,0.08 -0.916,0.1211 -1.363,0.1814 -2.725,0.3705 -4.084,0.5859 -14.56,2.3157 -28.734,6.6222 -41.921,13.004 -0.611,0.2948 -1.226,0.5789 -1.833,0.8828 -0.313,0.1549 -0.62,0.3232 -0.931,0.4804 -0.117,0.061 -0.234,0.1212 -0.348,0.1817 -1.209,0.6213 -2.408,1.2617 -3.597,1.9179 -0.08,0.045 -0.166,0.091 -0.252,0.1407 -1.268,0.7026 -2.525,1.4225 -3.77,2.164 -14.901,8.891 -26.349,19.2228 -37.043,32.168 0,0 0,0.037 -0.04,0.037 l -0.961,1.1953 -0.04,0.1074 c -8.707,11.7539 -10.277,25.4028 -11.855,37.3438 -12.937,46.3049 -31.633,94.6438 -51.116,132.4746 -14.92,28.266 -32.357,55.182 -53.881,78.2617 -1.156,1.2397 -2.328,2.4638 -3.511,3.6778 6.651,1.0114 13.294,2.0711 19.929,3.1777 20.931,-23.4323 37.841,-49.9514 52.278,-77.3008 20.358,-38.567 36.481,-79.1606 49.504,-120.5449 0.151,-0.4762 0.275,-0.9503 0.416,-1.4258 3.295,-4.3415 5.102,-8.5199 6.98,-11.2578 12.642,-18.4324 27.193,-35.4396 44.44,-48.8887 4.202,-3.2772 8.576,-6.3277 13.091,-9.123 -8.507,35.9482 -35.768,150.4563 -123.035,276.5176 0.862,0.17 1.724,0.3436 2.586,0.5156 86.017,-103.7862 104.918,-152.9374 136.272,-285.4453 6.139,-2.7353 12.47,-4.961 18.943,-6.5821 9.446,-2.3656 19.22,-3.4662 28.994,-3.3457 5.864,0.072 11.728,0.5847 17.522,1.5254 -7.604,69.2561 -71.174,173.2191 -80.577,302.3516 0.529,-0.038 1.058,-0.058 1.586,-0.088 24.329,-122.3834 83.538,-251.3665 101.952,-296.4453 11.91,4.0558 23.438,9.5664 34.447,16.0215 3.888,7.1146 5.433,15.9365 5.49,24.9941 0.09,14.5455 -2.684,29.3662 -6.209,44.2852 -7.725,32.7042 -19.184,65.3153 -25.055,100.0175 -1.869,11.0456 -3.972,22.9131 -3.144,35.4317 0.538,8.1483 3.987,14.8581 7.25,20.3672 7.075,11.9467 15.713,22.1691 23.57,32.1992 5.008,6.3923 9.944,12.4121 13.979,18.5527 6.466,0 12.932,0 19.398,0.062 -0.295,-0.5745 -0.589,-1.1353 -0.875,-1.6738 -5.566,-10.4754 -12.869,-19.0531 -19.31,-27.2754 -8.096,-10.3336 -16.205,-20.0375 -22.346,-30.4082 -2.762,-4.6639 -4.691,-9.0819 -4.945,-12.9336 -0.654,-9.8865 1.073,-20.4631 2.945,-31.5254 5.556,-32.8385 16.836,-65.1205 24.832,-98.9707 3.636,-15.3913 6.772,-31.5065 6.666,-48.2344 -0.06,-10.1495 -1.593,-21.0383 -6.533,-30.9921 0,-0.1323 0.06,-0.5856 0.06,-0.586 0,0 -0.692,-2.2563 -0.693,-2.2578 0,0 -0.807,-1.3752 -1.055,-1.6836 -0.99,-1.2325 -1.099,-1.1431 -1.314,-1.3203 -0.367,-0.3024 -0.579,-0.4557 -0.832,-0.6387 -14.601,-20.8671 -42.332,-24.1804 -62.233,-28.7578 -0.05,0 -0.09,-0.035 -0.133,-0.035 -0.9,-0.2041 -1.801,-0.4069 -2.705,-0.5977 -0.676,-0.1437 -1.355,-0.2756 -2.033,-0.4121 -0.959,-0.1889 -1.92,-0.3781 -2.883,-0.5508 -1.058,-0.1928 -2.119,-0.3781 -3.181,-0.5508 -0.254,-0.042 -0.509,-0.087 -0.764,-0.125 -1.528,-0.2419 -3.061,-0.4583 -4.596,-0.6582 -0.121,0 -0.24,-0.04 -0.361,-0.051 -7.553,-0.9687 -15.176,-1.4411 -22.801,-1.3867 z m 86.797,44.3926 c -88.01,131.5797 -81.058,231.147 -65.086,278.6719 -2.95,0.098 -5.9,0.1935 -8.849,0.3008 -41.508,1.5102 -82.98,3.9608 -124.389,7.1836 -0.86,-0.2086 -1.722,-0.4101 -2.582,-0.6172 55.337,-79.6996 81.091,-142.8213 93.113,-260.0411 -19.993,110.527 -70.092,201.053 -107.043,256.7579 -26.357,-6.0781 -52.91,-11.4435 -79.605,-16.0508 75.21,-72.6281 93.627,-131.0428 107.213,-216.0137 -20.354,65.4689 -44.873,141.6496 -110.081,215.5156 -72.78,-12.4078 -146.6,-19.1668 -220.375,-19.3261 -73.535,-0.1587 -147.024,6.2397 -219.388,20.1367 -136.777,26.2669 -269.583,80.9262 -379.071,168.082 -244.503,209.5555 -309.803,577.6851 -273.771,869.4981 16.511,114.0396 57.51,224.5261 120.527,321.1484 74.477,114.192 176.956,208.4746 291.496,281.2246 30.958,19.6623 61.816,39.5643 93.864,57.4141 137.742,76.7181 293.315,117.6596 449.73,131.6875 194.128,17.41 390.963,-4.0895 578.434,-56.4082 156.43,-43.656 306.775,-109.9333 443.234,-198.043 111.179,-71.7865 212.937,-161.1607 287.225,-271.541 60.339,-89.655 99.207,-193.3546 113.664,-300.459 17.606,-130.4336 2.484,-264.064 -35.307,-389.418 -48.699,-161.7735 -159.867,-340.7247 -278.463,-435.4551 -89.323,-67.9926 -196.358,-109.0973 -305.281,-133.0449 -126.084,-27.7206 -255.554,-35.6577 -384.449,-33.7441 -88.533,-95.3295 16.525,-234.9344 15.24,-277.459 z m -643.877,277.6934 c 42.498,0.092 70.383,9.5817 81.223,17.6484 -94.203,27.9024 -160.679,-59.3493 -505.272,192.8809 188.731,-171.504 337.029,-210.7173 424.049,-210.5293 z m 658.287,7.6406 c 75.131,-0.06 199.546,33.2153 333.473,118.0351 49.19,37.1721 96.998,76.9318 136.34,124.2247 258.615,310.8825 362.715,806.2257 -49.95,1349.9179 513.105,-746.1067 125.862,-1191.4411 -86.39,-1474.1426 -244.229,-121.4256 -417.821,-119.6226 -389.918,-52.5273 -37.769,-39.4487 -9.847,-65.455 56.445,-65.5078 z m -373.588,1.1426 c 61.458,0.1325 92.719,23.1333 83.221,45.1699 -52.399,-14.3494 -46.225,-109.8452 -478.82,144.4551 170.455,-147.0418 311.38,-189.8066 395.599,-189.625 z m 159.938,30.2324 c 29.723,0.257 49.467,9.9344 51.855,26.3672 -48.259,-0.2075 -110.389,-53.8561 -314.449,137.0644 -61.096,104.0491 -109.772,227.0584 -141.445,365.0274 56.479,68.7353 117.909,115.7206 190.49,108.4707 -35.867,57.6987 -146.885,147.3447 -225.592,119.9472 -16.748,202.768 0.824,428.2963 63.502,667.2266 217.438,48.577 511.642,-0.9641 733.42,-157.9434 l 12.664,27.8848 c 58.689,-215.594 68.484,-395.6783 52.572,-545.9355 -76.8,13.9086 -177.451,-69.7952 -211.15,-124.0059 74.593,-2.3329 131.583,-23.2321 177.064,-58.0254 -53.777,-197.4563 -146.015,-326.8784 -185.259,-410.7265 101.166,126.288 165.625,259.9912 201.586,397.2187 65.475,-58.459 105.692,-148.1965 142.539,-252.4629 69.109,127.0435 93.655,345.6017 -102.711,440.8711 -2.453,1.1898 -4.944,2.2484 -7.471,3.1816 15.078,184.4848 -13.031,371.9962 -65.49,553.5801 l 40.687,89.5879 67.871,-228.0293 c 82.063,-87.8929 144.438,-196.8407 174.491,-327.6445 128.636,413.6108 -96.015,672.8196 -395.2,774.2656 -3.412,7.8799 -6.85,15.7401 -10.318,23.5723 3.491,-7.8953 6.907,-15.7409 10.279,-23.5606 -186.202,63.127 -401.266,65.1529 -578.004,5.252 3.103,8.7835 6.262,17.5794 9.489,26.3906 -3.984,-8.999 -7.902,-18.0603 -11.77,-27.166 -206.807,-70.849 -360.541,-226.7973 -352.926,-469.1738 5.056,93.5531 54.582,166.0096 131.903,216.3476 l 55.207,121.5567 27.562,-79.8418 c 21.772,8.3784 44.765,15.5335 68.76,21.4629 -68.137,-219.2409 -101.071,-456.1238 -81.926,-680.254 -147.679,-89.8806 -143.308,-306.9753 -77.707,-427.5703 39.943,61.9727 79.521,128.2889 121.446,184.7383 34.677,-121.3469 88.739,-234.7061 165.437,-334.2422 83.502,-118.9725 197.202,-163.9971 262.594,-163.4316 z m 531.023,9.5723 c 48.124,0.2317 138.016,39.5542 298.944,170.0234 179.861,119.9527 569.794,647.4845 4.357,1239.7851 333.836,-464.788 382.367,-842.8349 -4.357,-1239.7851 -209.233,-141.1132 -238.034,-132.8379 -332.237,-160.7402 7.743,-5.7619 18.562,-9.3542 33.293,-9.2832 z m -1448.195,190.2246 c -86.993,156.3182 -401.507,526.2675 75.232,1312.5175 -359.926,-480.9509 -363.528,-980.2173 -75.232,-1312.5175 z m 278.801,8.082 c -413.555,417.0266 -155.394,1052.9034 -9.619,1401.4101 -424.212,-830.9588 -238.999,-1215.6837 9.619,-1401.4101 z"
         style="fill:#ff6a07;fill-opacity:1;fill-rule:evenodd;stroke:#ff6600;stroke-width:0.96857554px;stroke-linecap:butt;stroke-linejoin:miter;stroke-opacity:1" />
    </g>
  </g>
</svg>
