/* XPM */
static char *Vampire_Jack_o_Lantern[] = {
/* columns rows colors chars-per-pixel */
"76 68 64 1 ",
"  c #FF6701",
". c #FF6A06",
"X c #FF6C0A",
"o c #FF700F",
"O c #FF6F10",
"+ c #FF7213",
"@ c #FF761A",
"# c #FF781E",
"$ c #FF7B24",
"% c #FF7F29",
"& c #FF812D",
"* c #FF8534",
"= c #FF8837",
"- c #FF8A3C",
"; c #FF8E42",
": c #FF9046",
"> c #FF934B",
", c #FF9751",
"< c #FF9955",
"1 c #FF9D5C",
"2 c #FFA05F",
"3 c #FF9F60",
"4 c #FFA263",
"5 c #FFA66A",
"6 c #FFA86F",
"7 c #FFAB73",
"8 c #FFAF79",
"9 c #FFB17D",
"0 c #FFB583",
"q c #FFB788",
"w c #FFBA8B",
"e c #FFBE92",
"r c #FFC096",
"t c #FFC39C",
"y c #FFC7A1",
"u c #FFC9A5",
"i c #FFCDAC",
"p c #FFD0AF",
"a c #FFCFB0",
"s c #FFD2B4",
"d c #FFD6BA",
"f c #FFD8BE",
"g c #FFDBC3",
"h c #FFDFC9",
"j c #FFE2CE",
"k c #FFE5D4",
"l c #FFE7D8",
"z c #FFEADC",
"x c #FFEEE3",
"c c #FFF0E6",
"v c #FFF3EB",
"b c #FFF7F1",
"n c #FFF9F5",
"m c white",
"M c black",
"N c black",
"B c black",
"V c black",
"C c black",
"Z c black",
"A c black",
"S c black",
"D c black",
"F c black",
/* pixels */
"mmmmmmmmmmmmmmmmmmmmmmmmmmmmmmmmmmmmmmj7:<,1ivmmmmmmmmmmmmmmmmmmmmmmmmmmmmmm",
"mmmmmmmmmmmmmmmmmmmmmmmmmmmmmmmmmmmmmk7>qjt9qhmmmmmmmmmmmmmmmmmmmmmmmmmmmmmm",
"mmmmmmmmmmmmmmmmmmmmmmmmmmmmmmmmmmmmnu5wfluiegmmmmmmmmmmmmmmmmmmmmmmmmmmmmmm",
"mmmmmmmmmmmmmmmmmmmmmmmmmmmmmmmmmmmmctyughttrjmmmmmmmmmmmmmmmmmmmmmmmmmmmmmm",
"mmmmmmmmmmmmmmmmmmmmmmmmmmmmmmmmmmmmkqyuditeizmmmmmmmmmmmmmmmmmmmmmmmmmmmmmm",
"mmmmmmmmmmmmmmmmmmmmmmmmmmmmmmmmmmmni8ttsutricmmmmmmmmmmmmmmmmmmmmmmmmmmmmmm",
"mmmmmmmmmmmmmmmmmmmmmmmmmmmmmmmmmmmx00ttiiwtdnmmmmmmmmmmmmmmmmmmmmmmmmmmmmmm",
"mmmmmmmmmmmmmmmmmmmmmmmmmmmmmmmmmmmi8tiiig7tfmmmmmmmmmmmmmmmmmmmmmmmmmmmmmmm",
"mmmmmmmmmmmmmmmmmmmmmbbvcxzzzzxccbj0ygidjh5qivmmmmmmmmmmmmmmmmmmmmmmmmmmmmmm",
"mmmmmmmmmmmmmmmmmnclgdsye9511470ey77iitghd17ygxxcxcvnnmmmmmmmmmmmmmmmmmmmmmm",
"mmmmmmmmmmmmmmmcjiw097774:@.@&;>,<>><35751;7qwttw00wtihzxvmmmmmmmmmmmmmmmmmm",
"mmmmmmmmmmmmnxs02<<<>;===*&;451;*=34;><*X.=3-=;>>>;%$*4qtudlbmmmmmmmmmmmmmmm",
"mmmmmmmmmmmcs5-=:>=$+X..@;561*+X+*<3;--$..##..OO@$**$$=15435wgcmmmmmmmmmmmmm",
"mmmmmmmmmnh9=#*;=@X. .o&15<$XX @;>=+XXX............+#$+@%;>-=>0gbmmmmmmmmmmm",
"mmmmmmmmcu>@@*=@.....@*,>$X...@=;#.....X.............XX+#+#==$@;elmmmmmmmmmm",
"mmmmmmmxe*X+$$X.....o#=$o. ..X$&+.........X............@;;+.#%#X$6jnmmmmmmmm",
"mmmmmmce&.X++.......+@O....X.+@X....X...X..XOO...X....XX*5<+.X@X.+1gnmmmmmmm",
"mmmmmvr*X.......XX..........++X.X.X.X.......@%O...XXX...X,w<O..X++@<hmmmmmmm",
"mmmmmp=+@......X@+.........@&+.....X..X.....X==X.........@7t>X..+%%@4kmmmmmm",
"mmmmj,+&$.....+%%+....X...X-&X.......X.X.....$>%.X........%we=...@-*$9xmmmmm",
"mmmc0@%=+....X*>$.........%>$...XX......X....+;>+.....XX...:u8#...$,&&tnmmmm",
"mmmd=@>$....X*1=...+=$...X<>+..X....X...X.X...$1=.....$;$..O7i<X..X=1$>jmmmm",
"mmc7@-;X... $51+...=e5+..&5&..........X......XO;1O....,y<...$tt%...o>,$9cmmm",
"mmd=$<$X...+18&....1kd;..<4@......X.X.XX.X.....%4*...#wx8O...<s5+.. #1-=snmm",
"mc0@;>X....=w1X...+9vbe#@7>X.X...XX...X......X.+>3X..-gny$ ..#qt*....=4%6cmm",
"mj>#1*....+5w&... $enml4>9=X...........X...XX..X&4&.@0vms= ...>i5+ ..+<:=smm",
"ni$=1+....&e5X... $ynmndt7$...XX....X...........@<>.>gmmg; ...#0w%....=3$9cm",
"v9@>>X...X,t>.... $ymmmnl5+..............X......O-1;ynmmg- ....<u>. ..@1-;jm",
"l<#1= ...@8r$.....$enmmmbw$ ........XX....XX.....%7ixmmms=.....%e7@.X.X;1%tn",
"f*&4$ ...$e0+.....+0bmmmmx9$X...X.X..XXX...X.  .+,sbmmmny$ ....O6q$... *5&6c",
"e#-4@ ...;y4..X....1lmmmmmzw-+X.............X$=<qgbmmmmc7O......>e;X.. @4;:k",
"6+>4O...X<i>.......*smmmmmmvge1#X..XX.......$8glbmmmmmms-...... &0<X...X1>&i",
">+,1X...X3u=...XX..o5lmmmmmmmz7#.....X..X...O1hnmmmmmmj1O...X...@84+....,3$0",
"=+3,....+5u* X......$qxmmmmmzw&X...X.X.......@<dbmmmnh5@........X47#....;5$1",
"$+3,....+7t% .X...X..$qznbcf5#X.......X..X....X*0hlzi,@..X...... ,7$....-7%-",
"++4,....@7e$ .........;isq4=+...X...X....X.....XO%<6;X.....X.....;7%....-8%$",
".@41....+7e$ ......X..;w>+XX......X.....X..XX.....O-*........X.. =5&... ;9&+",
"X+11X...+7t% X..XXX.. :w;......X.....X...XX.......O=%..X..O...X. *5&....>0%o",
".+14X...O4r& ....X....>w;  ...X..XX............X..O%%X...O=%X..X &4&X...10#+",
"XX,7+...X<t= .....X...:q-....XX..X.X...X..........O%$....$71O... &1&X..X57@+",
"+X:7$ ...>r; ..X.X....;q=..........X...X..X.X.....X%$....;a0+... =1$...@95+#",
"$.=9* ...-e>..........;0;...X...X.....X.....X.....O%$...O5zt$ .. =<$.. &w,X=",
"=X%7>....&01......X...-0-......XX....XX.X...XX....X%$...*ini%....;>+.. >e=X1",
"<X@51X...#85X..X...X. *9;..........X...XX.X....X..O$@..O3zmd=....::+..X70$@0",
"0@.,7@...+18@ .....XX &7>....X...X...X.........X..+$+..-anmd=...+>=X..%e4X&s",
"i%.=9* ..X>0& X.X.....$7>O..X..X..X..X......XX....+$O.#0bmmg-...#>%...,e*.,l",
"k>.#7>X..X*9=.X.......@5,X........X.....X.X.......@@.+5kmmmd=...&>@..#07++qv",
"v0XX,6@.. #5,X...X... o21+...X...X......X.X.......@+O>gmmmmi%...=-X..>r=.*fm",
"ms%.%8*...X14O..oXX.. X,4@ ......X.........X......@O%ynmmmne# .+;%..+85+X7cm",
"mz4X+31X...=6%.X#$X....;2$.X..XX...X...X...X.....X+X>jmmmmc7+ .$;#.X>0*.*smm",
"mnu$.=7$...$3;.X*:@ .. *2$.....X.......X.X...X...OO+7xmmmmj>..X*=X.$7<X@9xmm",
"mml4X+1>...O><O.*7-..X $1=X.X.......XX.........X*-+$rnmmmny&..@=#.X>3$O<jmmm",
"mmns=.&1$...*1$ $0q*...O>-O......XX..X.....X..#1ut*=dmmmmz5+ .&*X.&1%X=snmmm",
"mmmc0@+>-...+,= X5ge*...;:+.................$>eknl54zmmmnu&..+&#.@:=X$tvmmmm",
"mmmmk3+$>@...=>X.=sct&..&;@............ .O&1rjbmmbsubmmmj1X..$%XX%&+$wcmmmmm",
"mmmmng,+**X..$;$ +5zx5+$;,$...    ..XX@*>0azbmmmmmbvmmmz7@ .+&@XX@+&wcmmmmmm",
"mmmmmns;+%@..O=*X.%rci>0di9,-=*&&=->39edkvmmmmmmmmmmmmcq%..X#$XX.X=ecmmmmmmm",
"mmmmmmbi;$#X .#*+.X-ikuknnclhfsssdgjzcnmmmmmmmmmmmmmmzq&..X+@X..X>icmmmmmmmm",
"mmmmmmmbs<@...O$@..X;ulnmmmmmmmnmmmmmmmmmmmmmmmmmmmmk7%...X++..@5dbmmmmmmmmm",
"mmmmmmmmnd4#...@$X..X-exmmmmmmmmmmmmmmmmmmmmmmmmmmcs1#X..XXX.+-wlnmmmmmmmmmm",
"mmmmmmmmmnk8%..X@+.X.X%5fvmmmmmmmmmmmmmmmmmmmmmmbg9=X......X$5dvmmmmmmmmmmmm",
"mmmmmmmmmmnxu>+.XX....X@=9gcnmmmmmmmmmmmmmmmmnxs8=@......X$<yzmmmmmmmmmmmmmm",
"mmmmmmmmmmmmnh9*X.....X..+=4tgzcnmmmmmmmnvckdw1*+......X#,tkbmmmmmmmmmmmmmmm",
"mmmmmmmmmmmmmmci4%X .......+#=<7etissssir05:&@X..... +&4tlnmmmmmmmmmmmmmmmmm",
"mmmmmmmmmmmmmmmnxu4&o........XXX@@$&&&$$@+XXX.... o$:9pznmmmmmmmmmmmmmmmmmmm",
"mmmmmmmmmmmmmmmmmbzs8:$XX.....................X+$>8ujvmmmmmmmmmmmmmmmmmmmmmm",
"mmmmmmmmmmmmmmmmmmmncki9<&#+XXXX..X.....XX+#&>5rfkcnmmmmmmmmmmmmmmmmmmmmmmmm",
"mmmmmmmmmmmmmmmmmmmmmmbclgt7<=$+XXX.XX@$=17tdkcbmmmmmmmmmmmmmmmmmmmmmmmmmmmm"
};
